<?xml version="1.0" encoding="iso-8859-1"?>
<!-- Uploaded to: SVG Repo, www.svgrepo.com, Generator: SVG Repo Mixer Tools -->
<svg version="1.1" id="Layer_1" xmlns="http://www.w3.org/2000/svg" xmlns:xlink="http://www.w3.org/1999/xlink" 
	 viewBox="0 0 511.999 511.999" xml:space="preserve">
<path style="fill:#FFFFFF;" d="M256,503.2C229.903,490.976,54.663,404.488,54.663,288V72.864c5.824,0.472,14.192,0.936,24.44,0.936
	C121.6,73.809,199.759,65.513,256,11.344c56.24,54.168,134.4,62.464,176.896,62.464c10.24,0,18.616-0.472,24.44-0.936v215.128
	C457.335,404.488,282.095,490.976,256,503.2z"/>
<path style="fill:#E21B1B;" d="M256,22.256c57.72,51.496,134.56,59.552,176.896,59.552c6.176,0,11.704-0.168,16.44-0.408v206.6
	c0,107.592-159.056,189.872-193.336,206.344C221.727,477.873,62.663,395.592,62.663,288V81.4c4.736,0.24,10.264,0.408,16.44,0.408
	C121.439,81.808,198.303,73.752,256,22.256 M256,0C201.807,56.944,122.935,65.808,79.103,65.808
	c-10.841,0.091-21.677-0.512-32.44-1.808v224c0,132,209.336,224,209.336,224s209.336-92,209.336-224V64
	c-10.764,1.296-21.599,1.9-32.44,1.808C389.063,65.808,310.191,56.952,256,0z"/>
<path d="M143.08,131.152h254.664l0,0v175.52c0,15.906-12.894,28.8-28.8,28.8H114.255l0,0V160
	c-0.026-15.906,12.847-28.822,28.752-28.848C143.031,131.152,143.055,131.152,143.08,131.152z"/>
<rect x="114.246" y="164.027" style="fill:#E2E2E2;" width="283.493" height="40.84"/>
<g>
	<path style="fill:#E21B1B;" d="M186.96,294.064l-6.8-54.568h12.064l2.4,25.992c0.568,5.744,0.968,11.088,1.288,16.752h0.168
		c2.024-5.344,4.616-11.2,7.28-16.84l12.224-25.904h13.032l-28.176,54.568H186.96z"/>
	<path style="fill:#E21B1B;" d="M246.487,239.504l-10.4,54.568h-11.624l10.4-54.568H246.487z"/>
	<path style="fill:#E21B1B;" d="M249.247,281.44c3.909,2.274,8.349,3.474,12.872,3.48c4.536,0,8.664-2.104,8.664-6.4
		c0-3.08-2.344-5.104-7.36-7.696c-5.832-3.16-11.336-7.36-11.336-14.488c0-11.008,9.6-17.728,21.536-17.728
		c4.456-0.213,8.892,0.736,12.872,2.752l-3.648,9.72c-3.153-1.623-6.655-2.447-10.2-2.4c-5.424,0-8.256,2.752-8.256,5.744
		c0,3.16,3.32,5.104,7.936,7.696c6.143,2.234,10.392,7.879,10.84,14.4c0,12.145-10.04,18.4-22.184,18.4
		c-5.48,0.302-10.924-1.053-15.624-3.888L249.247,281.44z"/>
	<path style="fill:#E21B1B;" d="M302.783,279.904l-6.48,14.168h-12.384l26.552-54.568h14.976l6.4,54.568h-12.232l-1.136-14.168
		H302.783z M317.983,271l-1.056-11.736c-0.24-2.992-0.568-7.368-0.8-10.688h-0.128c-1.376,3.312-2.92,7.528-4.376,10.688
		L306.199,271H317.983z"/>
</g>
</svg>