<?xml version="1.0" encoding="iso-8859-1"?>
<!-- Uploaded to: SVG Repo, www.svgrepo.com, Generator: SVG Repo Mixer Tools -->
<svg version="1.1" id="Layer_1" xmlns="http://www.w3.org/2000/svg" xmlns:xlink="http://www.w3.org/1999/xlink" 
	 viewBox="0 0 512 512" xml:space="preserve">
<g>
	<rect x="32.616" y="91.24" style="fill:#999999;" width="380.96" height="63.12"/>
	<rect x="65.984" y="234.632" style="fill:#999999;" width="64.4" height="138.992"/>
	<rect x="32.616" y="431.456" style="fill:#999999;" width="117.912" height="12.808"/>
	<rect x="332.472" y="478.048" style="fill:#999999;" width="117.912" height="12.808"/>
</g>
<path d="M344.096,512H138.92c-21.864-0.064-39.568-17.768-39.632-39.632V39.632C99.352,17.768,117.064,0.064,138.92,0h205.168
	c21.864,0.064,39.568,17.768,39.632,39.632v432.736C383.656,494.224,365.952,511.928,344.096,512z"/>
<rect x="118.056" y="40.4" style="fill:#FFFFFF;" width="246.912" height="403.76"/>
<g>
	<path style="fill:#CCCCCC;" d="M278.544,24.424h-50.528c-2.28-0.008-4.12-1.848-4.128-4.128l0,0c0.008-2.28,1.848-4.12,4.128-4.128
		h50.528c2.28,0.008,4.12,1.848,4.128,4.128l0,0C282.664,22.576,280.816,24.416,278.544,24.424z"/>
	<circle style="fill:#CCCCCC;" cx="204.472" cy="20.296" r="4.128"/>
	<path style="fill:#CCCCCC;" d="M241.504,497.6c-10.784,0-19.52-8.736-19.52-19.52s8.736-19.52,19.52-19.52s19.52,8.736,19.52,19.52
		l0,0C261.016,488.856,252.28,497.584,241.504,497.6z M241.504,462.552c-8.568,0-15.52,6.952-15.52,15.52s6.952,15.52,15.52,15.52
		c8.568,0,15.52-6.952,15.52-15.52l0,0c0.008-8.584-6.936-15.544-15.52-15.552l0,0L241.504,462.552L241.504,462.552z"/>
</g>
<path style="fill:#E21B1B;" d="M479.384,256.296l-36.624-29.552l23.552-40.864l-49.704-4.344l-4.36-47.808l-41.856,20l-28.8-37.376
	L314.56,154.6L270.968,132l-2.616,49.552l-48.8,2.608l18.312,46.944l-37.496,22.6l38.4,28.688l-19.2,40.856l47.96,5.216l2.616,48.68
	l44.472-20.864l29.648,39.12l26.16-39.12l40.984,20l3.488-48.68l47.96-0.872l-17.44-40L479.384,256.296z"/>
<path style="fill:#FFFFFF;" d="M331.696,229.6c0,22.16-12.936,33.32-27.336,33.32c-14.72,0-26.688-11.32-26.84-31.536
	c0-19.896,11.488-33,27.656-33C321.832,198.352,331.696,210.648,331.696,229.6z M292.72,230.736
	c-0.168,12.136,4.2,21.024,12.136,21.024s11.808-8.408,11.808-21.184c0-11.64-3.2-21.024-11.808-21.024
	c-8.096-0.04-12.152,9.344-12.152,21.152L292.72,230.736z M304.72,307.08l60.944-108.728h11.32l-60.976,108.696L304.72,307.08z
	 M404.192,273.272c0,21.992-12.8,33.32-27.336,33.32s-26.688-11.328-26.688-31.704c0-19.736,11.488-33,27.504-33
	c16.632-0.032,26.48,12.432,26.48,31.352L404.192,273.272z M365.216,274.408c-0.168,12,4.2,21.024,12.136,21.024
	c8.088,0,11.808-8.408,11.808-21.184c0-11.808-3.2-21.024-11.808-21.024c-8.136-0.04-12.176,9.336-12.176,21.176L365.216,274.408z"
	/>
</svg>