<?xml version="1.0" encoding="iso-8859-1"?>
<!-- Uploaded to: SVG Repo, www.svgrepo.com, Generator: SVG Repo Mixer Tools -->
<svg version="1.1" id="Layer_1" xmlns="http://www.w3.org/2000/svg" xmlns:xlink="http://www.w3.org/1999/xlink" 
	 viewBox="0 0 512.001 512.001" xml:space="preserve">
<rect x="11.44" y="197.953" style="fill:#2196F3;" width="102.958" height="269.978"/>
<path style="fill:#FFE1C2;" d="M473.036,209.866H354.582c-11.769,0-20.335-11.164-17.289-22.532l21.099-78.745
	c7.464-27.858-9.068-56.493-36.926-63.957l0,0c-8.758-2.346-17.76,2.851-20.106,11.609l-14.803,55.245
	c-6.979,26.046-20.513,49.913-39.479,69.079c-23.954,24.208-49.626,42.152-58.07,49.47l-4.179,3.622
	c-4.431,3.839-10.097,5.953-15.96,5.953h-54.473v186.667h54.473c5.863,0,11.529,2.114,15.96,5.953l0,0
	c17.704,15.344,40.347,23.79,63.774,23.79h190.113c15.201,0,27.524-12.323,27.524-27.524v-6.491
	c0-15.201-12.323-27.524-27.524-27.524h11.44c15.201,0,27.524-12.323,27.524-27.524v-6.491c0-15.201-12.323-27.524-27.524-27.524
	h11.44c15.201,0,27.524-12.323,27.524-27.524v-6.491c0-15.2-12.322-27.523-27.521-27.524h11.437
	c15.201,0,27.524-12.323,27.524-27.524v-6.491C500.56,222.189,488.237,209.866,473.036,209.866z"/>
<g>
	<path style="fill:#231F20;" d="M473.037,198.426H354.582c-2.772,0-4.401-1.583-5.124-2.527c-0.725-0.944-1.833-2.926-1.115-5.603
		l21.099-78.745c9.084-33.907-11.109-68.883-45.017-77.967c-14.836-3.978-30.141,4.862-34.117,19.698l-14.802,55.244
		c-6.502,24.265-19.143,46.394-36.56,63.994c-17.013,17.193-34.955,31.158-46.829,40.399c-4.532,3.527-8.113,6.314-10.603,8.472
		l-4.18,3.623c-2.35,2.036-5.356,3.157-8.465,3.157h-43.033v-30.217c0-6.318-5.123-11.44-11.44-11.44H11.44
		c-6.317,0-11.44,5.122-11.44,11.44v269.978c0,6.318,5.123,11.44,11.44,11.44h102.958c6.317,0,11.44-5.122,11.44-11.44v-30.216
		h43.033c3.11,0,6.118,1.121,8.467,3.159c19.78,17.144,45.091,26.585,71.267,26.585h190.113c21.485,0,38.965-17.479,38.965-38.964
		v-6.49c0-8.173-2.529-15.765-6.844-22.036c10.975-6.899,18.284-19.118,18.284-33.012v-6.49c0-8.173-2.529-15.765-6.844-22.036
		c10.975-6.899,18.284-19.118,18.284-33.012v-6.49c0-8.171-2.529-15.764-6.844-22.036c10.975-6.899,18.284-19.118,18.284-33.012
		v-6.491C512,215.906,494.521,198.426,473.037,198.426z M102.958,456.492H22.879V209.393h80.078V456.492z M489.121,243.881
		c0,8.869-7.216,16.084-16.085,16.084h-30.818c-6.317,0-11.44,5.122-11.44,11.44c0,6.318,5.123,11.44,11.44,11.44h19.38
		c8.868,0,16.083,7.216,16.083,16.084v6.49c0,8.869-7.216,16.084-16.085,16.084H428.49c-6.317,0-11.44,5.122-11.44,11.44
		s5.123,11.44,11.44,11.44h21.666c8.869,0,16.085,7.215,16.085,16.084v6.49c0,8.869-7.216,16.084-16.085,16.084h-33.677
		c-6.317,0-11.44,5.122-11.44,11.44s5.123,11.44,11.44,11.44h22.238c8.869,0,16.085,7.215,16.085,16.084v6.49
		c0,8.869-7.216,16.084-16.085,16.084H248.604c-20.672,0-40.661-7.456-56.282-20.994c-6.508-5.642-14.837-8.749-23.451-8.749
		h-43.032V251.049h43.032c8.614,0,16.943-3.107,23.45-8.748l4.179-3.622c2.035-1.764,5.575-4.519,9.672-7.708
		c12.338-9.604,30.983-24.116,49.039-42.361c20.207-20.421,34.867-46.067,42.397-74.165L312.409,59.2
		c0.71-2.651,3.439-4.233,6.096-3.52c21.719,5.819,34.657,28.225,28.837,49.947l-21.099,78.745
		c-1.257,4.691-1.324,9.492-0.293,14.054h-13.383c-6.317,0-11.44,5.122-11.44,11.44c0,6.318,5.123,11.44,11.44,11.44h160.47
		c8.869,0,16.084,7.215,16.084,16.084V243.881z"/>
	<path style="fill:#231F20;" d="M71.57,437.334c6.317,0,11.44-5.122,11.44-11.44v-11.44c0-6.318-5.123-11.44-11.44-11.44
		s-11.44,5.122-11.44,11.44v11.44C60.131,432.212,65.253,437.334,71.57,437.334z"/>
	<path style="fill:#231F20;" d="M201.697,266.13c-6.317,0-11.44,5.122-11.44,11.44v54.459c0,6.318,5.123,11.44,11.44,11.44
		c6.317,0,11.44-5.122,11.44-11.44V277.57C213.137,271.251,208.015,266.13,201.697,266.13z"/>
	<path style="fill:#231F20;" d="M201.697,364.626c-6.317,0-11.44,5.122-11.44,11.44v11.315c0,6.318,5.123,11.44,11.44,11.44
		c6.317,0,11.44-5.122,11.44-11.44v-11.315C213.137,369.748,208.015,364.626,201.697,364.626z"/>
</g>
</svg>